<svg width="132" height="43" viewBox="0 0 132 43" fill="none" xmlns="http://www.w3.org/2000/svg">
<path d="M0.418488 41.8979L18.6107 1.08211H27.94L46.1905 41.8979H36.2781L21.3512 5.86339H25.0829L10.0977 41.8979H0.418488ZM9.51458 33.1517L12.0218 25.9798H33.0128L35.5784 33.1517H9.51458Z" fill="white"/>
<path d="M50.4251 41.8979V1.08211H70.3666C75.4977 1.08211 79.3461 2.05392 81.9116 3.99753C84.5161 5.94114 85.8183 8.5067 85.8183 11.6942C85.8183 13.8322 85.2935 15.6981 84.2439 17.2918C83.1944 18.8467 81.7561 20.0517 79.9291 20.9069C78.1021 21.7621 76.003 22.1897 73.6318 22.1897L74.7397 19.7991C77.3053 19.7991 79.5793 20.2267 81.5618 21.0819C83.5443 21.8982 85.0797 23.1226 86.1681 24.7553C87.2954 26.3879 87.8591 28.3898 87.8591 30.761C87.8591 34.2595 86.4791 37 83.7192 38.9825C80.9593 40.9261 76.8971 41.8979 71.5327 41.8979H50.4251ZM59.8128 34.7843H70.833C73.282 34.7843 75.1284 34.3956 76.3723 33.6181C77.6551 32.8018 78.2965 31.519 78.2965 29.7698C78.2965 28.0594 77.6551 26.7961 76.3723 25.9798C75.1284 25.1246 73.282 24.697 70.833 24.697H59.1131V17.8166H69.2004C71.4939 17.8166 73.2431 17.4279 74.4482 16.6504C75.6921 15.8341 76.314 14.6096 76.314 12.977C76.314 11.3832 75.6921 10.1976 74.4482 9.4202C73.2431 8.60388 71.4939 8.19572 69.2004 8.19572H59.8128V34.7843Z" fill="white"/>
<path d="M114.544 42.5976C111.395 42.5976 108.46 42.0923 105.739 41.0816C103.057 40.032 100.725 38.5549 98.7422 36.6502C96.7597 34.7454 95.2048 32.5103 94.0775 29.9447C92.9891 27.3791 92.4449 24.5609 92.4449 21.49C92.4449 18.4191 92.9891 15.6009 94.0775 13.0353C95.2048 10.4697 96.7597 8.2346 98.7422 6.32986C100.764 4.42512 103.115 2.96741 105.798 1.95674C108.48 0.907189 111.415 0.382416 114.602 0.382416C118.139 0.382416 121.327 1.00437 124.165 2.24828C127.041 3.45332 129.451 5.24144 131.395 7.61264L125.331 13.2102C123.931 11.6165 122.377 10.4309 120.666 9.65343C118.956 8.83712 117.09 8.42896 115.069 8.42896C113.164 8.42896 111.415 8.73993 109.821 9.36189C108.227 9.98384 106.847 10.8779 105.681 12.0441C104.515 13.2102 103.601 14.5902 102.94 16.184C102.318 17.7777 102.007 19.5464 102.007 21.49C102.007 23.4336 102.318 25.2023 102.94 26.7961C103.601 28.3898 104.515 29.7698 105.681 30.936C106.847 32.1021 108.227 32.9962 109.821 33.6181C111.415 34.2401 113.164 34.5511 115.069 34.5511C117.09 34.5511 118.956 34.1623 120.666 33.3849C122.377 32.5686 123.931 31.3441 125.331 29.7115L131.395 35.3091C129.451 37.6803 127.041 39.4878 124.165 40.7317C121.327 41.9757 118.12 42.5976 114.544 42.5976Z" fill="white"/>
</svg>
