<svg width="1121" height="748" viewBox="0 0 1121 748" fill="none" xmlns="http://www.w3.org/2000/svg">
<mask id="mask0_23_51" style="mask-type:alpha" maskUnits="userSpaceOnUse" x="0" y="0" width="1121" height="748">
<path d="M1120.85 15.6377C1120.85 7.35341 1114.14 0.637695 1105.85 0.637695H0V747.967H1105.85C1114.14 747.967 1120.85 741.251 1120.85 732.967V15.6377Z" fill="#232626"/>
</mask>
<g mask="url(#mask0_23_51)">
<path d="M470.159 749.301C470.842 734.278 474.825 720.536 474.013 705.122C472.538 677.087 452.696 646.947 430.131 630.7C409.445 615.807 384.121 609.333 360.156 601.94C319.281 589.329 278.068 580.407 238.442 563.839C224.767 558.121 211.797 551.138 199.6 542.713C173.249 524.512 157.082 495.168 141.93 467.698C128.375 443.122 118.096 417.616 109.241 391.052C98.8212 359.793 85.681 329.797 71.5851 300.026C56.7711 268.738 41.1146 235.481 13.8412 212.928C2.72216 203.733 -9.75273 197.349 -22.1839 190.246" stroke="#3A3611" stroke-width="2" stroke-linecap="round"/>
<path d="M351.185 -8.56104C336.651 15.5107 320.674 39.3859 298.006 56.543C289.725 62.8102 281.024 68.2166 271.519 72.4339C260.404 77.366 247.812 83.0584 235.357 82.3622C217.351 81.3558 198.579 69.3516 182.883 61.6901C141.748 41.6116 103.971 14.9847 62.0261 -3.4092C45.3201 -10.7352 28.0464 -17.2536 10.5614 -22.4771C3.22078 -24.6701 -3.45873 -26.0478 -11.0872 -25.6748C-33.6605 -24.571 -55.0013 -21.0835 -75.9333 -12.2532C-102.249 -1.1517 -128.361 15.7425 -148.759 35.7553C-155.554 42.422 -163.658 49.1124 -169.395 56.691" stroke="#3A3611" stroke-width="2" stroke-linecap="round"/>
</g>
</svg>
